Coordinates
version=1
nRows=14
nColumns=24
inDegrees=yes

Units are S.I. units (second, meters, Newtons, ...)
Angles are in degrees.

endheader
time	pelvis_tilt	pelvis_list	pelvis_rotation	pelvis_tx	pelvis_ty	pelvis_tz	hip_flexion_r	hip_adduction_r	hip_rotation_r	knee_angle_r	ankle_angle_r	subtalar_angle_r	mtp_angle_r	hip_flexion_l	hip_adduction_l	hip_rotation_l	knee_angle_l	ankle_angle_l	subtalar_angle_l	mtp_angle_l	lumbar_extension	lumbar_bending	lumbar_rotation
      2.05500000	    -24.83805649	      6.28824623	    359.29277750	     -0.64865179	      1.35194475	     -1.03198618	     18.44349050	     -2.67420166	      2.26338014	    -16.71956764	     12.32741036	     -1.46990557	      6.21291542	     39.10281561	      7.22090415	     -9.80837468	      7.03628665	     -7.21219534	      7.84147105	     32.26719579	     29.69590471	      2.15307578	   -207.47210865
      2.06000000	    -24.56036794	      6.39454033	    359.31514700	     -0.64379275	      1.35177444	     -1.03213352	     17.87195251	     -2.82745384	      2.22378723	    -16.78784216	     12.40750063	     -1.42104291	      6.20164858	     39.01613497	      7.35041650	     -9.60516527	      6.20401598	     -7.26854806	      7.09584611	     32.24947482	     29.41208677	      1.83359837	   -207.95547736
      2.06500000	    -24.34283296	      6.47782000	    359.35712495	     -0.63889312	      1.35155365	     -1.03235579	     17.36493631	     -2.96225560	      2.15905555	    -16.86120909	     12.43865488	     -1.40190950	      6.28688418	     38.98863688	      7.47207280	     -9.27552621	      5.35748390	     -7.42541435	      6.15566284	     32.10539157	     29.19335535	      1.54670330	   -208.41027984
      2.07000000	    -24.12422725	      6.56719445	    359.40119993	     -0.63392594	      1.35137173	     -1.03258152	     16.85882322	     -3.10322741	      2.08860325	    -16.94410828	     12.42808232	     -1.38933493	      6.42991397	     38.93543811	      7.60480374	     -8.89383341	      4.54322963	     -7.66195525	      5.18490196	     31.95462501	     28.96642359	      1.25574677	   -208.82037060
      2.07500000	    -23.94303876	      6.63481389	    359.47059811	     -0.62889766	      1.35117049	     -1.03288070	     16.39578054	     -3.22775172	      1.98193192	    -17.04434810	     12.38564740	     -1.41040503	      6.59182768	     38.90761102	      7.74180732	     -8.47458713	      3.75022618	     -7.96219943	      4.21010740	     31.81811241	     28.78259146	      0.99132803	   -209.20690230
      2.08000000	    -23.75384136	      6.71264893	    359.54185306	     -0.62380406	      1.35101622	     -1.03320558	     15.93881134	     -3.36494104	      1.87698494	    -17.17761191	     12.30337396	     -1.40721545	      6.81593390	     38.83803869	      7.89661199	     -8.00732368	      3.01754282	     -8.32637227	      3.21515811	     31.72031460	     28.58994773	      0.72673324	   -209.52061579
      2.08500000	    -23.62264445	      6.77077631	    359.62752575	     -0.61869843	      1.35083289	     -1.03357486	     15.57093201	     -3.48183578	      1.75613121	    -17.36681286	     12.18500196	     -1.43081142	      7.04273931	     38.81958286	      8.04626650	     -7.54728237	      2.31099358	     -8.75579494	      2.26693574	     31.64400649	     28.45386591	      0.48543293	   -209.82749899
      2.09000000	    -23.51445420	      6.84168690	    359.71058001	     -0.61352962	      1.35066473	     -1.03396663	     15.25871710	     -3.61220584	      1.64396676	    -17.61763600	     12.03120507	     -1.43497669	      7.35187323	     38.79340921	      8.20855758	     -7.04902097	      1.66391617	     -9.20423203	      1.30414187	     31.63254139	     28.35283239	      0.25122433	   -210.02875095
      2.09500000	    -23.43282439	      6.89340487	    359.80361031	     -0.60836978	      1.35051157	     -1.03439889	     15.01582560	     -3.72460561	      1.51532727	    -17.94600106	     11.82998961	     -1.44849760	      7.67763045	     38.78291078	      8.36418206	     -6.56831321	      1.04566425	     -9.69488365	      0.40508262	     31.63854740	     28.26488928	      0.03815344	   -210.24767000
      2.10000000	    -23.40872151	      6.96000400	    359.88084933	     -0.60319337	      1.35033861	     -1.03483622	     14.88932225	     -3.84845664	      1.42503796	    -18.36259788	     11.54836392	     -1.50034445	      8.24937974	     38.81189200	      8.52076554	     -6.10675753	      0.47452916	    -10.22006175	     -0.48575032	     31.81070574	     28.24392698	     -0.16071968	   -210.35177933
      2.10500000	    -23.35403004	      7.02138123	    359.97166200	     -0.59796961	      1.35026405	     -1.03531954	     14.76812898	     -3.97718585	      1.29611086	    -18.86044291	     11.24035984	     -1.50424752	      8.73321992	     38.78600452	      8.68876267	     -5.64326235	     -0.07108155	    -10.70730075	     -1.30058706	     31.85640552	     28.18871205	     -0.35681904	   -210.45517194
      2.11000000	    -23.30631775	      7.06057050	    360.07301115	     -0.59277959	      1.35022627	     -1.03586218	     14.71182465	     -4.09157071	      1.14372413	    -19.46413035	     10.92740183	     -1.45017991	      9.13982039	     38.76580675	      8.84632021	     -5.16100467	     -0.62236328	    -11.14389722	     -2.07094254	     31.80435191	     28.12499338	     -0.52427002	   -210.57491030
      2.11500000	    -23.32225270	      7.10769279	    360.16091201	     -0.58757585	      1.35016856	     -1.03641021	     14.79066980	     -4.21269563	      1.02846904	    -20.17322906	     10.46951924	     -1.50095531	      9.91679555	     38.80103749	      8.99676777	     -4.71609476	     -1.15080059	    -11.59633568	     -2.82596781	     31.92353053	     28.14527544	     -0.67257311	   -210.57802301
      2.12000000	    -23.31082697	      7.15455225	    360.24548230	     -0.58237131	      1.35019755	     -1.03699653	     14.90239151	     -4.34628732	      0.88640337	    -20.99556802	     10.01914879	     -1.41447007	     10.56225434	     38.80309948	      9.15139637	     -4.27113347	     -1.69201399	    -11.94258186	     -3.57918094	     31.85560539	     28.12318318	     -0.81367796	   -210.59741756
